<svg width="70" height="72" viewBox="0 0 70 72" fill="none" xmlns="http://www.w3.org/2000/svg">
<rect width="70" height="70" rx="10" fill="#ECF9FF" fill-opacity="0.8"/>
<g filter="url(#filter0_f_1_2956)">
<rect x="22" y="35" width="27" height="27" rx="10" fill="#FFC350" fill-opacity="0.25"/>
</g>
<g clip-path="url(#clip0_1_2956)">
<path d="M34.4349 15.1292L16.5233 23.7762C16.2987 23.8847 16.156 24.112 16.156 24.3614V45.6386C16.156 45.888 16.2987 46.1153 16.5233 46.2237L34.4349 54.8708C34.7919 55.0431 35.208 55.0431 35.5649 54.8708L53.4766 46.2237C53.7012 46.1153 53.8438 45.888 53.8438 45.6386V24.3614C53.8438 24.112 53.7011 23.8847 53.4766 23.7762L35.5649 15.1292C35.208 14.9569 34.7919 14.9569 34.4349 15.1292Z" fill="#FFE17D"/>
<path d="M16.2641 24.0059C16.1958 24.1098 16.156 24.2323 16.156 24.3616V45.6388C16.156 45.8881 16.2987 46.1155 16.5233 46.2239L34.4349 54.8709C34.6133 54.957 34.8066 55.0001 34.9999 55.0001V33.0508L16.2641 24.0059Z" fill="#FFC350"/>
<path d="M53.7359 24.0059C53.8041 24.1098 53.8439 24.2323 53.8439 24.3616V45.6387C53.8439 45.8881 53.7012 46.1155 53.4766 46.2239L35.565 54.8709C35.3866 54.957 35.1933 55.0001 35 55.0001V33.0508L53.7359 24.0059Z" fill="#FFD164"/>
<path d="M21.5162 44.5047C21.4217 44.5047 21.3252 44.4837 21.2345 44.44L18.4691 43.1049C18.1455 42.9488 18.0103 42.5605 18.1664 42.2375C18.3219 41.9145 18.7115 41.78 19.0339 41.9348L21.7993 43.27C22.1228 43.4261 22.258 43.8144 22.1019 44.1374C21.9903 44.3695 21.758 44.5047 21.5162 44.5047Z" fill="#FFE17D"/>
<path d="M24.0615 42.8479C23.967 42.8479 23.8705 42.827 23.7798 42.7832L18.4729 40.2215C18.1499 40.0654 18.0141 39.677 18.1702 39.3541C18.3257 39.0317 18.7159 38.8966 19.0377 39.0514L24.3445 41.6131C24.6674 41.7692 24.8032 42.1576 24.6471 42.4806C24.5356 42.7127 24.3033 42.8479 24.0615 42.8479Z" fill="#FFF6D8"/>
<path d="M47.3866 27.0606L28.5849 17.9775L23.6287 20.3799L42.4726 29.477L47.3866 27.0606Z" fill="#FF8087"/>
<path d="M42.4727 29.4769V36.5243C42.4727 36.7638 42.723 36.921 42.9388 36.8169L47.0195 34.847C47.2441 34.7385 47.3867 34.5112 47.3867 34.2618V27.0605L42.4727 29.4769Z" fill="#E6646E"/>
</g>
<defs>
<filter id="filter0_f_1_2956" x="12" y="25" width="47" height="47" filterUnits="userSpaceOnUse" color-interpolation-filters="sRGB">
<feFlood flood-opacity="0" result="BackgroundImageFix"/>
<feBlend mode="normal" in="SourceGraphic" in2="BackgroundImageFix" result="shape"/>
<feGaussianBlur stdDeviation="5" result="effect1_foregroundBlur_1_2956"/>
</filter>
<clipPath id="clip0_1_2956">
<rect width="40" height="40" fill="white" transform="translate(15 15)"/>
</clipPath>
</defs>
</svg>
