<svg width="70" height="70" viewBox="0 0 70 70" fill="none" xmlns="http://www.w3.org/2000/svg">
<rect width="70" height="70" rx="10" fill="#ECF9FF" fill-opacity="0.8"/>
<g clip-path="url(#clip0_1_2971)">
<path d="M26.9854 38.7695H21.2139C20.2764 38.7695 19.5164 39.5295 19.5164 40.4671V53.3026C19.5164 54.2401 20.2764 55.0001 21.2139 55.0001H26.9853C27.9229 55.0001 28.6829 54.2401 28.6829 53.3026V40.4671C28.6829 39.5295 27.9229 38.7695 26.9854 38.7695Z" fill="#FFDC4A"/>
<path d="M21.9309 53.3026V40.4671C21.9309 39.5296 22.6909 38.7695 23.6285 38.7695H21.2139C20.2764 38.7695 19.5164 39.5295 19.5164 40.4671V53.3026C19.5164 54.2402 20.2764 55.0002 21.2139 55.0002H23.6284C22.6909 55.0001 21.9309 54.2401 21.9309 53.3026Z" fill="#EDCA3A"/>
<path d="M39.4316 32.8828H33.6602C32.7226 32.8828 31.9626 33.6428 31.9626 34.5804V53.3026C31.9626 54.2402 32.7226 55.0002 33.6602 55.0002H39.4316C40.3692 55.0002 41.1292 54.2402 41.1292 53.3026V34.5803C41.1292 33.6428 40.3692 32.8828 39.4316 32.8828Z" fill="#FF3132"/>
<path d="M34.3772 53.3026V34.5804C34.3772 33.6428 35.1372 32.8828 36.0748 32.8828H33.6603C32.7228 32.8828 31.9628 33.6428 31.9628 34.5804V53.3026C31.9628 54.2402 32.7228 55.0002 33.6603 55.0002H36.0748C35.1372 55.0002 34.3772 54.2402 34.3772 53.3026Z" fill="#D82A2B"/>
<path d="M51.8779 26.9961H46.1065C45.1689 26.9961 44.4089 27.7561 44.4089 28.6937V53.3026C44.4089 54.2402 45.1689 55.0002 46.1065 55.0002H51.8779C52.8155 55.0002 53.5755 54.2402 53.5755 53.3026V28.6937C53.5754 27.7561 52.8154 26.9961 51.8779 26.9961Z" fill="#3CDCF9"/>
<path d="M46.8234 53.3026V28.6937C46.8234 27.7561 47.5834 26.9961 48.521 26.9961H46.1065C45.1689 26.9961 44.4089 27.7561 44.4089 28.6937V53.3026C44.4089 54.2402 45.1689 55.0002 46.1065 55.0002H48.521C47.5834 55.0002 46.8234 54.2402 46.8234 53.3026Z" fill="#30CBE8"/>
<path d="M53.4842 15.0074L47.6539 15.7672L49.0632 17.6522L44.0702 21.3854L41.4439 19.0698C40.996 18.6749 40.3326 18.6482 39.8543 19.0057L28.6876 27.3545L26.0753 25.3976C25.6274 25.062 25.0119 25.0617 24.5637 25.3969L15.5654 32.1246L17.0761 34.1452L25.3183 27.9828L27.9306 29.9397C28.3785 30.2753 28.994 30.2756 29.4422 29.9404L40.5441 21.6399L43.1704 23.9554C43.6183 24.3503 44.2818 24.3771 44.76 24.0195L50.5738 19.6727L51.9844 21.5593L54.3615 16.1804C54.6264 15.5811 54.1339 14.9227 53.4842 15.0074Z" fill="#2DC580"/>
</g>
<defs>
<clipPath id="clip0_1_2971">
<rect width="40" height="40" fill="white" transform="translate(15 15)"/>
</clipPath>
</defs>
</svg>
